#!OML:ASF F:\VICON\USERDATA\INSTALL\rory3\rory3.ASF
:FULLY-SPECIFIED
:DEGREES
95
root -0.308897 18.4939 1.93871 -5.8118 -9.10437 3.66919
lowerback -0.9733 2.83613 0.0187159
upperback 0.326594 3.79216 -1.14707
thorax 0.957922 1.89953 -1.1143
lowerneck -16.5993 -0.367786 -4.68955
upperneck 25.1666 -1.64745 8.89357
head 10.977 -0.104373 3.80949
rclavicle 1.00635e-015 -4.77083e-015
rhumerus 56.0425 -12.6131 -66.5498
rradius 35.2458
rwrist -68.1857
rhand -34.8924 -26.1677
rfingers 7.12502
rthumb -8.04096 -55.9947
lclavicle 1.00635e-015 -4.77083e-015
lhumerus 47.1808 0.565878 36.6713
lradius 40.0077
lwrist 91.7163
lhand -18.2704 33.513
lfingers 7.12502
lthumb 8.00933 63.3412
rfemur 3.34552 7.40211 19.4102
rtibia 31.9978
rfoot -26.4425 -25.9384
rtoes -4.09461
lfemur -6.21441 -4.39953 -16.6097
ltibia 26.1297
lfoot -12.2027 16.3782
ltoes -7.19098
96
root -0.261395 18.4978 1.96873 -5.91882 -8.94035 3.66687
lowerback -1.01197 2.76851 0.0237153
upperback 0.41621 3.70275 -1.10492
thorax 1.06706 1.85514 -1.07089
lowerneck -17.3173 -0.310609 -4.47432
upperneck 25.3968 -1.57091 8.70723
head 11.1976 -0.055473 3.73172
rclavicle 4.11422e-014 -1.16289e-014
rhumerus 57.3701 -12.5834 -67.6335
rradius 33.7979
rwrist -66.1531
rhand -35.7701 -27.6017
rfingers 7.12502
rthumb -8.88792 -57.3945
lclavicle 4.11422e-014 -1.16289e-014
lhumerus 47.9086 -0.203053 35.2175
lradius 37.8836
lwrist 90.4474
lhand -17.7964 35.1569
lfingers 7.12502
lthumb 8.46683 64.9671
rfemur 3.26835 7.1938 19.1775
rtibia 32.5036
rfoot -26.4614 -25.7048
rtoes -4.43761
lfemur -6.11744 -4.39451 -16.7852
ltibia 26.275
lfoot -12.2813 16.1323
ltoes -7.22357
97
root -0.211772 18.4975 1.9982 -6.04327 -8.88424 3.58934
lowerback -0.936076 2.64431 0.111903
upperback 0.322257 3.533 -0.943714
thorax 0.920084 1.76973 -0.965726
lowerneck -17.315 -0.149666 -4.46392
upperneck 25.4872 -1.29572 8.51892
head 11.2066 0.0478228 3.70219
rclavicle 1.96424e-014 1.19271e-015
rhumerus 58.4432 -12.0911 -68.4241
rradius 32.549
rwrist -64.6529
rhand -36.5682 -29.6185
rfingers 7.12502
rthumb -9.65805 -59.3771
lclavicle 1.96424e-014 1.19271e-015
lhumerus 48.0339 -0.744922 34.2485
lradius 36.3524
lwrist 89.5068
lhand -18.2552 37.1529
lfingers 7.12502
lthumb 8.02405 66.9806
rfemur 3.14256 7.04785 19.0241
rtibia 33.107
rfoot -26.1346 -25.5296
rtoes -5.46088
lfemur -5.99292 -4.28186 -16.8834
ltibia 26.4275
lfoot -12.2451 15.9505
ltoes -7.63649
98
root -0.16179 18.4982 2.02657 -6.12248 -8.83231 3.63505
lowerback -0.934303 2.57325 0.111523
upperback 0.27358 3.43709 -0.863053
thorax 0.862482 1.72126 -0.886571
lowerneck -17.2675 -0.0193598 -4.51869
upperneck 25.3681 -1.09112 8.53591
head 11.1355 0.136202 3.74185
rclavicle 3.24267e-015 2.24627e-014
rhumerus 59.5026 -11.7659 -69.1698
rradius 31.5087
rwrist -63.5314
rhand -37.5181 -30.8928
rfingers 7.12502
rthumb -10.5745 -60.6068
lclavicle 3.24267e-015 2.24627e-014
lhumerus 48.2826 -0.726381 34.2895
lradius 35.2678
lwrist 88.3592
lhand -19.1592 38.7676
lfingers 7.12502
lthumb 7.15144 68.6268
rfemur 2.90576 6.93275 18.7213
rtibia 33.8092
rfoot -25.3774 -25.4556
rtoes -7.47119
lfemur -5.89906 -4.2159 -17.1161
ltibia 26.5398
lfoot -12.3555 15.7811
ltoes -7.59046
99
root -0.108757 18.5007 2.05422 -6.23002 -8.79686 3.72276
lowerback -0.918901 2.50376 0.0634944
upperback 0.437323 3.34541 -0.767596
thorax 1.01151 1.67544 -0.760081
lowerneck -17.7724 0.0803448 -4.52762
upperneck 25.2891 -0.903113 8.45683
head 11.1905 0.219694 3.74548
rclavicle 3.67503e-014 -1.70955e-014
rhumerus 60.7688 -11.4955 -69.7213
rradius 30.8743
rwrist -62.9983
rhand -38.6521 -31.7598
rfingers 7.12502
rthumb -11.6682 -61.4149
lclavicle 3.67503e-014 -1.70955e-014
lhumerus 48.6731 0.159674 35.2719
lradius 34.5343
lwrist 87.1079
lhand -19.7598 39.3067
lfingers 7.12502
lthumb 6.57171 69.1847
rfemur 2.63462 6.85045 18.3658
rtibia 34.5869
rfoot -25.0381 -25.2496
rtoes -8.5581
lfemur -5.74907 -4.06433 -17.403
ltibia 26.6176
lfoot -12.4761 15.5611
ltoes -7.79822
100
root -0.053984 18.4983 2.08396 -6.34617 -8.75977 3.73807
lowerback -0.830716 2.44079 0.126824
upperback 0.395649 3.2591 -0.663035
thorax 0.915617 1.63213 -0.69562
lowerneck -17.4728 0.207002 -4.46988
upperneck 25.0518 -0.702379 8.34185
head 11.0252 0.29611 3.70724
rclavicle -2.07978e-014 -5.76476e-015
rhumerus 61.5384 -11.0867 -69.9862
rradius 30.5088
rwrist -62.9807
rhand -39.6521 -32.0485
rfingers 7.12502
rthumb -12.6324 -61.6465
lclavicle -2.07978e-014 -5.76476e-015
lhumerus 48.75 1.02767 36.6271
lradius 34.2515
lwrist 86.3068
lhand -20.1173 39.3488
lfingers 7.12502
lthumb 6.22662 69.2373
rfemur 2.34734 6.69469 18.0547
rtibia 35.4337
rfoot -25.1118 -24.8451
rtoes -8.84742
lfemur -5.59038 -3.95986 -17.62
ltibia 26.6805
lfoot -12.6194 15.3896
ltoes -7.83289
101
root 0.000599312 18.4935 2.10886 -6.39992 -8.70401 3.7759
lowerback -0.729261 2.369 0.144177
upperback 0.491981 3.16284 -0.585196
thorax 0.952641 1.58414 -0.629504
lowerneck -17.8871 0.321132 -4.36515
upperneck 25.0504 -0.528624 8.23391
head 11.0927 0.379082 3.68051
rclavicle -1.70458e-014 2.78299e-015
rhumerus 62.6267 -10.8325 -70.3364
rradius 30.4214
rwrist -63.0549
rhand -40.3946 -32.2764
rfingers 7.12502
rthumb -13.3481 -61.8289
lclavicle -1.70458e-014 2.78299e-015
lhumerus 49.0638 2.42517 38.3296
lradius 34.2737
lwrist 85.8153
lhand -19.6164 39.1065
lfingers 7.12502
lthumb 6.71015 68.9802
rfemur 1.91166 6.51737 17.7117
rtibia 36.353
rfoot -24.9653 -24.54
rtoes -9.24631
lfemur -5.50395 -4.05421 -17.8669
ltibia 26.7107
lfoot -12.8243 15.3081
ltoes -7.32788
102
root 0.0525788 18.489 2.12744 -6.36216 -8.74604 3.58182
lowerback -0.573766 2.30314 0.329443
upperback 0.521493 3.07138 -0.380812
thorax 0.893109 1.53887 -0.531728
lowerneck -18.07 0.438744 -4.40488
upperneck 24.9897 -0.334517 8.21581
head 11.0905 0.464193 3.70906
rclavicle -4.05769e-014 -1.51076e-014
rhumerus 63.6462 -10.4797 -70.3468
rradius 30.5599
rwrist -63.3761
rhand -40.8116 -33.2849
rfingers 7.12502
rthumb -13.7501 -62.8106
lclavicle -4.05769e-014 -1.51076e-014
lhumerus 49.1739 3.82295 40.04
lradius 34.7528
lwrist 85.7987
lhand -18.5746 38.1104
lfingers 7.12502
lthumb 7.71578 67.9496
rfemur 1.32609 6.48525 17.6829
rtibia 37.3463
rfoot -24.5812 -24.3982
rtoes -10.1193
lfemur -5.49528 -3.99078 -17.7984
ltibia 26.7242
lfoot -13.0475 15.0627
ltoes -6.36326
103
root 0.103165 18.4852 2.15015 -6.41488 -8.83035 3.43367
lowerback -0.376787 2.29506 0.482078
upperback 0.54324 3.05879 -0.244583
thorax 0.805448 1.53296 -0.486077
lowerneck -17.9669 0.515678 -4.25021
upperneck 24.8478 -0.257114 8.17637
head 11.0116 0.507233 3.67147
rclavicle -1.3418e-015 1.98785e-014
rhumerus 64.4252 -10.243 -70.1426
rradius 30.9105
rwrist -63.8391
rhand -40.6326 -33.7445
rfingers 7.12502
rthumb -13.5775 -63.2818
lclavicle -1.3418e-015 1.98785e-014
lhumerus 49.2931 5.08821 41.6848
lradius 35.7252
lwrist 86.3402
lhand -18.0074 36.9531
lfingers 7.12502
lthumb 8.2632 66.7715
rfemur 0.818035 6.54281 17.6099
rtibia 38.4249
rfoot -24.3535 -23.9968
rtoes -10.2949
lfemur -5.38077 -3.89716 -17.7719
ltibia 26.762
lfoot -13.326 14.7898
ltoes -5.34872
104
root 0.155762 18.4821 2.17692 -6.53746 -8.84001 3.53182
lowerback -0.203781 2.25867 0.426123
upperback 0.640497 3.01099 -0.196171
thorax 0.802025 1.50881 -0.411122
lowerneck -17.9814 0.580587 -4.07974
upperneck 24.7772 -0.199906 8.12785
head 10.9844 0.543472 3.62983
rclavicle -4.31363e-014 -2.78299e-015
rhumerus 65.1085 -9.99432 -69.673
rradius 31.6908
rwrist -64.538
rhand -40.504 -33.3256
rfingers 7.12502
rthumb -13.4536 -62.8711
lclavicle -4.31363e-014 -2.78299e-015
lhumerus 49.3976 6.42209 43.1661
lradius 37.1547
lwrist 87.4928
lhand -18.2393 36.0471
lfingers 7.12502
lthumb 8.03941 65.8742
rfemur 0.330523 6.45097 17.1831
rtibia 39.6025
rfoot -24.1003 -23.4745
rtoes -10.6429
lfemur -5.20887 -3.90552 -18.0683
ltibia 26.8276
lfoot -13.6799 14.5913
ltoes -4.46135
105
root 0.206011 18.4774 2.19561 -6.5759 -8.81615 3.57061
lowerback 0.0422816 2.27788 0.42562
upperback 0.474694 3.03753 -0.206802
thorax 0.495372 1.52113 -0.436841
lowerneck -17.2305 0.632756 -3.85895
upperneck 24.6573 -0.232734 8.23009
head 10.7957 0.549371 3.60692
rclavicle 2.82274e-014 1.31198e-014
rhumerus 65.1677 -9.81858 -68.861
rradius 32.8223
rwrist -65.367
rhand -40.5449 -32.3607
rfingers 7.12502
rthumb -13.493 -61.9036
lclavicle 2.82274e-014 1.31198e-014
lhumerus 49.2578 7.20521 44.2691
lradius 38.9665
lwrist 88.9833
lhand -18.3372 35.3856
lfingers 7.12502
lthumb 7.94489 65.2163
rfemur -0.340295 6.3065 16.8214
rtibia 40.8842
rfoot -23.8896 -23.0243
rtoes -11.3377
lfemur -5.15585 -3.80651 -18.2666
ltibia 26.8723
lfoot -13.8952 14.3726
ltoes -4.33191
106
root 0.251749 18.4778 2.21273 -6.59812 -8.78941 3.4499
lowerback 0.351257 2.26656 0.472575
upperback 0.563565 3.02323 -0.108053
thorax 0.410285 1.51397 -0.373606
lowerneck -17.4647 0.627651 -3.89812
upperneck 24.8124 -0.303878 8.48895
head 10.9048 0.549983 3.70938
rclavicle -1.49089e-016 -1.11319e-014
rhumerus 65.6603 -9.76031 -67.9699
rradius 34.2563
rwrist -65.9678
rhand -40.0969 -31.4347
rfingers 7.12502
rthumb -13.0611 -61.0057
lclavicle -1.49089e-016 -1.11319e-014
lhumerus 49.3366 8.42319 45.3619
lradius 41.0246
lwrist 90.6867
lhand -18.0507 35.1444
lfingers 7.12502
lthumb 8.22139 64.9644
rfemur -1.11031 6.17452 16.687
rtibia 42.2703
rfoot -23.2766 -22.8145
rtoes -12.5053
lfemur -5.1355 -3.71366 -18.2598
ltibia 26.9367
lfoot -14.0473 14.1182
ltoes -3.94114
107
root 0.296639 18.4777 2.23418 -6.6219 -8.74139 3.46142
lowerback 0.554421 2.25915 0.368471
upperback 0.682999 3.01363 -0.0333257
thorax 0.409287 1.50877 -0.245205
lowerneck -17.6555 0.583084 -3.96789
upperneck 24.9534 -0.423451 8.74865
head 11.0048 0.525132 3.81001
rclavicle -1.58531e-014 9.54166e-015
rhumerus 66.0457 -9.7557 -66.8809
rradius 36.0427
rwrist -66.4265
rhand -39.4731 -30.4658
rfingers 7.12502
rthumb -12.4598 -60.0744
lclavicle -1.58531e-014 9.54166e-015
lhumerus 49.3391 9.59959 46.3414
lradius 43.368
lwrist 92.5372
lhand -17.7075 34.839
lfingers 7.12502
lthumb 8.55263 64.6458
rfemur -1.93604 6.01838 16.3891
rtibia 43.7348
rfoot -22.2939 -22.6564
rtoes -12.7981
lfemur -5.144 -3.59231 -18.4131
ltibia 27.0418
lfoot -14.0683 13.9298
ltoes -4.07593
108
root 0.340594 18.4651 2.25224 -6.6606 -8.70937 3.68413
lowerback 0.727461 2.29328 0.113166
upperback 0.400926 3.05861 -0.075939
thorax 0.013087 1.52973 -0.162096
lowerneck -16.2033 0.554776 -3.86406
upperneck 24.7469 -0.563517 8.93019
head 10.6534 0.464989 3.80526
rclavicle 9.49197e-015 -1.31198e-014
rhumerus 65.4894 -9.59918 -65.5959
rradius 38.2085
rwrist -66.7925
rhand -38.9625 -29.5926
rfingers 7.12502
rthumb -11.9675 -59.2305
lclavicle 9.49197e-015 -1.31198e-014
lhumerus 48.7782 10.1817 47.1274
lradius 45.9145
lwrist 94.4541
lhand -17.3729 34.3903
lfingers 7.12502
lthumb 8.87555 64.1837
rfemur -2.799 5.9071 15.8372
rtibia 45.2592
rfoot -21.5203 -22.2999
rtoes -12.3697
lfemur -5.20129 -3.38752 -18.7826
ltibia 27.161
lfoot -14.0785 13.675
ltoes -4.57391
109
root 0.381214 18.4502 2.2676 -6.77807 -8.68135 3.95181
lowerback 0.995839 2.25456 -0.315807
upperback 0.711391 3.00401 -0.0397323
thorax 0.156411 1.50127 0.110493
lowerneck -16.729 0.473026 -3.89617
upperneck 24.8147 -0.684215 8.99725
head 10.7921 0.424862 3.83114
rclavicle 5.76476e-015 1.27222e-014
rhumerus 65.9587 -9.70528 -64.25
rradius 40.6067
rwrist -67.4286
rhand -38.1406 -28.2388
rfingers 7.12502
rthumb -11.1749 -57.9212
lclavicle 5.76476e-015 1.27222e-014
lhumerus 49.011 11.8127 48.2719
lradius 48.5461
lwrist 96.026
lhand -17.018 34.3112
lfingers 7.12502
lthumb 9.21794 64.0897
rfemur -3.63877 5.79412 15.2429
rtibia 46.8316
rfoot -20.7096 -21.8837
rtoes -12.8334
lfemur -5.18679 -3.23632 -19.1934
ltibia 27.293
lfoot -14.1832 13.3961
ltoes -4.95858
